<svg width="17" height="17" viewBox="0 0 17 17" fill="none" xmlns="http://www.w3.org/2000/svg">
<path d="M16.25 7.62549C16.155 6.33192 15.7429 5.08195 15.05 3.98554C14.8422 3.65768 14.6086 3.34626 14.3529 3.05411C13.1343 1.61055 11.4436 0.644793 9.58141 0.328451C9.32998 0.288451 9.07855 0.25988 8.82142 0.242737H8.76999H8.24998H7.77569H7.67855C7.45641 0.255594 7.23497 0.280594 7.01569 0.317022C5.1149 0.610598 3.38562 1.58345 2.14714 3.0542C1.89143 3.34635 1.65785 3.65777 1.45 3.98564C0.757134 5.08206 0.344994 6.33205 0.25 7.62558V8.197V8.76843C0.344999 10.062 0.757134 11.312 1.45 12.4084C1.65785 12.7362 1.89143 13.0477 2.14714 13.3398C3.36571 14.7834 5.05638 15.7491 6.91859 16.0655C7.17002 16.1055 7.42145 16.134 7.67858 16.1512H7.73001H8.25002H8.72431H8.82145C9.04359 16.1383 9.26503 16.1133 9.48431 16.0769C11.3851 15.7833 13.1144 14.8105 14.3529 13.3397C14.61 13.0404 14.8429 12.7211 15.05 12.3854C15.7393 11.2954 16.1507 10.054 16.25 8.76834V8.19691V7.62549ZM15.1071 7.62549H12.8214C12.7286 6.69334 12.5372 5.77406 12.25 4.88264C12.8293 4.7505 13.4014 4.58835 13.9643 4.39693C14.6157 5.35765 15.0086 6.4691 15.1071 7.62549ZM11.1929 11.2998C10.4086 11.1655 9.6165 11.0834 8.82145 11.0541V8.76838H11.6786C11.6264 9.63124 11.455 10.4834 11.17 11.2998L11.1929 11.2998ZM4.84999 8.76834H7.6786V11.054C6.91289 11.0769 6.1486 11.1512 5.39289 11.2769C5.12075 10.4633 4.93857 9.62195 4.84999 8.76834ZM5.32999 5.09402C6.10642 5.23116 6.89071 5.3133 7.6786 5.33974V7.62545H4.82147C4.87361 6.76259 5.04501 5.91049 5.32999 5.09402ZM11.6786 7.62549H8.82145V5.33978C9.58788 5.31478 10.3515 5.23835 11.1072 5.11121C11.3886 5.9262 11.58 6.76906 11.6786 7.62549ZM13.2157 3.44831C12.7586 3.59117 12.3129 3.70545 11.8786 3.79687C11.5922 3.10974 11.24 2.45116 10.8272 1.83117C11.7193 2.19688 12.5243 2.7483 13.1871 3.44831H13.2157ZM10.73 4.01974C10.0985 4.11974 9.46068 4.17902 8.82131 4.19688V1.33975H9.02132C9.72131 2.13331 10.2885 3.03402 10.7013 4.00836L10.73 4.01974ZM7.67845 1.33979V4.19693C7.03774 4.17693 6.39846 4.11907 5.76413 4.0255C6.22698 3.06194 6.82984 2.17261 7.55269 1.38542L7.67845 1.33979ZM5.74127 1.79123C5.29627 2.41122 4.91343 3.07336 4.59842 3.76827C4.14698 3.67113 3.7127 3.55113 3.30127 3.42542C3.98841 2.71756 4.82055 2.16828 5.74131 1.814L5.74127 1.79123ZM2.53561 4.39693C3.05562 4.57408 3.60419 4.73409 4.18703 4.87123C3.89846 5.76337 3.72704 6.68908 3.67847 7.62541H1.39276C1.48848 6.46828 1.88205 5.3562 2.53561 4.39693ZM1.39276 8.7683H3.67847C3.77132 9.70045 3.96276 10.6197 4.24989 11.5112C3.67061 11.6426 3.09775 11.8047 2.53561 11.9969C1.88205 11.0376 1.48847 9.92542 1.39276 8.7683ZM3.2899 12.9455C3.71275 12.814 4.15847 12.694 4.62704 12.5969C4.91346 13.2841 5.26561 13.9426 5.67846 14.5626C4.78418 14.1976 3.97775 13.6462 3.31266 12.9455H3.2899ZM5.7698 12.3741C6.40193 12.2776 7.03908 12.2183 7.67845 12.1969V15.054H7.47845C6.77917 14.2569 6.20988 13.3548 5.79273 12.3798L5.7698 12.3741ZM8.82131 15.054V12.1969C9.46059 12.2183 10.0977 12.2776 10.73 12.374C10.2671 13.3347 9.6664 14.2218 8.94711 15.0082L8.82131 15.054ZM10.7585 14.6026C11.2056 13.984 11.5885 13.3219 11.9013 12.6255C12.3242 12.7169 12.7585 12.8312 13.2042 12.9684C12.5156 13.6769 11.6813 14.2262 10.7585 14.5798V14.6026ZM13.9641 11.9969C13.4206 11.8104 12.8677 11.654 12.307 11.5283C12.5984 10.6347 12.7713 9.70687 12.8213 8.76825H15.107C15.0084 9.92467 14.6156 11.0361 13.9641 11.9969Z" fill="#F0ECE6"/>
</svg>
