<svg width="16" height="16" viewBox="0 0 16 16" fill="none" xmlns="http://www.w3.org/2000/svg">
<path d="M14.8951 4.03101C14.6233 3.57168 14.2341 3.19299 13.7678 2.93878L9.07448 0.366854C8.18913 -0.122285 7.11442 -0.122285 6.22906 0.366854L1.53754 2.93878C0.58907 3.45772 0 4.45353 0 5.53524V10.4652C0 11.5469 0.58907 12.541 1.53754 13.0599L6.23082 15.6301C6.66911 15.8703 7.14773 15.9895 7.62811 15.9947C7.63687 15.9947 7.64388 16 7.65265 16C7.66142 16 7.66843 15.9947 7.6772 15.9947C8.16633 15.9912 8.64671 15.865 9.07448 15.6301L13.7678 13.0599C14.7162 12.541 15.3053 11.5452 15.3053 10.4652V5.53349C15.3053 4.99526 15.1598 4.47982 14.8968 4.03276L14.8951 4.03101ZM2.08629 12.0571C1.50423 11.738 1.14308 11.1261 1.14308 10.4634V5.53349C1.14308 4.87078 1.50423 4.25892 2.08629 3.9416L6.77956 1.37143C7.32305 1.07163 7.98225 1.07163 8.52574 1.37143L13.219 3.9416C13.3224 3.99945 13.4171 4.06783 13.5065 4.14146L8.52749 6.86591C7.984 7.1657 7.3248 7.1657 6.78132 6.86591L3.1908 4.90059C2.9173 4.7428 2.56842 4.83747 2.41063 5.11097C2.25284 5.38447 2.34751 5.73335 2.62101 5.89114C2.62802 5.89464 2.63504 5.8999 2.64205 5.90341L6.22906 7.86873C6.49906 8.01775 6.78658 8.11418 7.08111 8.17203V14.7465C6.97943 14.7114 6.87599 14.6799 6.77956 14.6273L2.08629 12.0571ZM14.1622 10.4634C14.1622 11.1279 13.8011 11.738 13.219 12.0571L8.52574 14.629C8.42931 14.6816 8.32587 14.7132 8.22419 14.7482V8.17378C8.52223 8.11593 8.80975 8.01424 9.07624 7.87048L14.1096 5.11448C14.1429 5.25123 14.1622 5.39148 14.1622 5.53524V10.4634Z" fill="#F0ECE6"/>
</svg>
