<svg width="15" height="17" viewBox="0 0 15 17" fill="none" xmlns="http://www.w3.org/2000/svg">
<path d="M14.3898 1.47808V13.6901C14.3898 14.1748 13.8663 14.4789 13.4452 14.2388C11.2147 12.9667 9.07837 12.002 7.0371 11.3435L6.73062 11.2477C6.72501 11.7155 6.73847 12.1819 6.77099 12.6469C6.7979 13.0317 6.83133 13.325 6.8812 13.6258C6.92261 13.8756 6.96139 14.0667 7.08163 14.629C7.30296 15.6638 6.51506 16.6222 5.39543 16.8121C5.31904 16.825 5.24197 16.8342 5.16458 16.8396C4.03986 16.9183 3.03123 16.1907 2.95835 15.1485C2.95297 15.0715 2.95303 14.9943 2.95851 14.9173C2.99933 14.3439 3.01115 14.1491 3.01739 13.896C3.02492 13.5912 3.0172 13.2961 2.99029 12.9112C2.93524 12.124 2.82555 11.3404 2.66115 10.5603C2.64459 10.4817 2.64342 10.4035 2.6556 10.3287C1.998 10.2327 1.33158 10.1595 0.65675 10.1089C0.327118 10.0842 0.0722656 9.80959 0.0722656 9.47904V5.68911C0.0722656 5.35331 0.33501 5.0762 0.67034 5.05835C2.69851 4.95037 4.82064 4.53964 7.0371 3.82465C9.25909 3.10788 11.3919 2.14466 13.4364 0.934511C13.8574 0.685272 14.3898 0.988776 14.3898 1.47808ZM3.94557 10.5409L3.9693 10.6587C4.1061 11.377 4.19985 12.0985 4.25052 12.8231C4.28011 13.2463 4.28886 13.581 4.28032 13.9271C4.27341 14.207 4.26092 14.413 4.21863 15.007C4.21736 15.0249 4.21734 15.0426 4.21858 15.0603C4.23888 15.3506 4.6021 15.6126 5.07646 15.5794C5.11263 15.5769 5.14862 15.5726 5.18423 15.5665C5.6417 15.489 5.90515 15.1685 5.84626 14.8932C5.7217 14.3107 5.68069 14.1086 5.6349 13.8324C5.57826 13.4908 5.54034 13.1581 5.51076 12.735C5.46796 12.123 5.45591 11.5089 5.47459 10.8927C4.97158 10.7634 4.46226 10.6488 3.94764 10.5485L3.94557 10.5409ZM13.1265 2.56537C11.2937 3.57145 9.39305 4.39208 7.42494 5.02695C6.14015 5.4414 4.88237 5.7587 3.65167 5.9786L3.65225 9.20924C4.94024 9.43472 6.19787 9.74537 7.42494 10.1412C9.26042 10.7333 11.1608 11.559 13.1265 12.6176V2.56537ZM2.38865 6.17126C2.03532 6.21578 1.6843 6.25201 1.33558 6.27996V8.89856C1.68881 8.93185 2.0399 8.97121 2.38883 9.01663L2.38865 6.17126Z" fill="#F0ECE6"/>
</svg>
