<svg width="14" height="16" viewBox="0 0 14 16" fill="none" xmlns="http://www.w3.org/2000/svg">
<path d="M11.0005 0C11.584 -6.85429e-08 12.1435 0.231695 12.5562 0.644144C12.9688 1.05659 13.2008 1.61603 13.2011 2.19947V13.8005C13.2008 14.384 12.9688 14.9434 12.5562 15.3559C12.1435 15.7683 11.584 16 11.0005 16H2.20053C1.6171 16 1.05755 15.7683 0.644898 15.3559C0.232249 14.9434 0.000282808 14.384 0 13.8005V2.19947C0.000282808 1.61603 0.232249 1.05659 0.644898 0.644144C1.05755 0.231695 1.6171 -6.85429e-08 2.20053 0H11.0005ZM8.20053 13.0005H5.00053C4.91961 12.9971 4.83884 13.0101 4.76307 13.0387C4.6873 13.0673 4.6181 13.111 4.55963 13.167C4.50117 13.2231 4.45464 13.2904 4.42286 13.3649C4.39108 13.4394 4.3747 13.5195 4.3747 13.6005C4.3747 13.6815 4.39108 13.7617 4.42286 13.8362C4.45464 13.9107 4.50117 13.978 4.55963 14.034C4.6181 14.0901 4.6873 14.1337 4.76307 14.1623C4.83884 14.191 4.91961 14.2039 5.00053 14.2005H8.20053C8.35529 14.194 8.50153 14.1279 8.60872 14.0161C8.71592 13.9043 8.77576 13.7554 8.77576 13.6005C8.77576 13.4456 8.71592 13.2967 8.60872 13.1849C8.50153 13.0731 8.35529 13.0071 8.20053 13.0005ZM11.0005 1.2H2.20053C2.06919 1.2 1.93914 1.22589 1.81781 1.27618C1.69648 1.32648 1.58625 1.40019 1.49343 1.49311C1.4006 1.58604 1.32701 1.69634 1.27684 1.81773C1.22668 1.93911 1.20093 2.06919 1.20107 2.20053V11.2H12V2.19947C12 2.06821 11.9741 1.93825 11.9239 1.81699C11.8737 1.69573 11.8001 1.58555 11.7073 1.49274C11.6145 1.39993 11.5043 1.32631 11.383 1.27608C11.2618 1.22585 11.1318 1.2 11.0005 1.2Z" fill="#F0ECE6"/>
</svg>
