<svg width="216" height="64" viewBox="0 0 216 64" fill="none" xmlns="http://www.w3.org/2000/svg">
<g clip-path="url(#clip0_476_213)">
<path d="M76.2325 26.4139C77.1746 27.3561 77.1746 28.8838 76.2325 29.826L59.1141 46.9446C58.1719 47.8867 56.6442 47.8867 55.702 46.9446L44.9293 36.1719C43.9871 35.2294 43.9871 33.7019 44.9293 32.7597L62.0478 15.6412C62.99 14.699 64.5177 14.699 65.4599 15.6412L76.2325 26.4139Z" fill="white"/>
<path d="M80.2533 29.826C81.1955 28.8838 81.1955 27.3561 80.2533 26.4139L72.3321 18.4928L75.1839 15.6412C76.126 14.699 77.6537 14.699 78.5958 15.6412L89.3684 26.4139C90.3106 27.3561 90.3106 28.8838 89.3684 29.826L72.2501 46.9446C71.3079 47.8867 69.7803 47.8867 68.8377 46.9446L65.9863 44.0928L80.2533 29.826Z" fill="white"/>
<path d="M108.261 32.4974C109.17 32.667 109.917 33.1217 110.503 33.8615C111.089 34.6013 111.382 35.449 111.382 36.4049C111.382 37.2678 111.166 38.0306 110.735 38.6937C110.318 39.3411 109.71 39.8494 108.908 40.2193C108.107 40.5893 107.159 40.7742 106.064 40.7742H99.1055V24.6367H105.764C106.858 24.6367 107.798 24.814 108.584 25.1685C109.386 25.523 109.987 26.0162 110.388 26.6482C110.804 27.2801 111.012 27.9968 111.012 28.7983C111.012 29.7385 110.757 30.5246 110.249 31.1565C109.756 31.7884 109.093 32.2354 108.261 32.4974ZM102.342 31.2952H105.301C106.072 31.2952 106.666 31.1257 107.082 30.7866C107.498 30.4321 107.706 29.9311 107.706 29.2838C107.706 28.6365 107.498 28.1355 107.082 27.781C106.666 27.4265 106.072 27.2493 105.301 27.2493H102.342V31.2952ZM105.602 38.1388C106.388 38.1388 106.997 37.9538 107.428 37.5839C107.876 37.2139 108.099 36.69 108.099 36.0116C108.099 35.3179 107.868 34.7787 107.405 34.3933C106.943 33.9925 106.319 33.7922 105.532 33.7922H102.342V38.1388H105.602Z" fill="white"/>
<path d="M118.723 40.9829C117.49 40.9829 116.38 40.7131 115.394 40.1735C114.408 39.6186 113.629 38.8405 113.059 37.8384C112.504 36.8367 112.227 35.6807 112.227 34.3706C112.227 33.0605 112.512 31.9045 113.082 30.9026C113.668 29.9008 114.461 29.1301 115.463 28.5906C116.465 28.0358 117.583 27.7583 118.816 27.7583C120.048 27.7583 121.166 28.0358 122.168 28.5906C123.17 29.1301 123.956 29.9008 124.526 30.9026C125.112 31.9045 125.405 33.0605 125.405 34.3706C125.405 35.6807 125.104 36.8367 124.503 37.8384C123.917 38.8405 123.116 39.6186 122.098 40.1735C121.097 40.7131 119.972 40.9829 118.723 40.9829ZM118.723 38.1621C119.309 38.1621 119.856 38.0234 120.364 37.7459C120.888 37.4532 121.305 37.0217 121.613 36.4515C121.921 35.8809 122.075 35.1873 122.075 34.3706C122.075 33.1529 121.752 32.2204 121.104 31.5731C120.473 30.9103 119.694 30.5789 118.769 30.5789C117.844 30.5789 117.066 30.9103 116.434 31.5731C115.818 32.2204 115.509 33.1529 115.509 34.3706C115.509 35.5882 115.81 36.5283 116.411 37.191C117.028 37.8384 117.798 38.1621 118.723 38.1621Z" fill="white"/>
<path d="M130.09 29.9545C130.506 29.2764 131.046 28.7446 131.709 28.3592C132.387 27.9739 133.158 27.7812 134.021 27.7812V31.1799H133.165C132.148 31.1799 131.377 31.4189 130.853 31.8967C130.345 32.3745 130.09 33.2067 130.09 34.3935V40.7745H126.854V27.9662H130.09V29.9545Z" fill="white"/>
<path d="M134.443 34.3242C134.443 33.0295 134.698 31.8812 135.206 30.8794C135.73 29.8775 136.439 29.1069 137.333 28.5674C138.227 28.0279 139.221 27.7582 140.315 27.7582C141.148 27.7582 141.942 27.9432 142.697 28.3131C143.452 28.6676 144.053 29.1454 144.5 29.7465V23.666H147.783V40.7746H144.5V38.879C144.1 39.5107 143.537 40.0194 142.813 40.4046C142.088 40.7902 141.248 40.9828 140.293 40.9828C139.214 40.9828 138.227 40.7054 137.333 40.1505C136.439 39.5956 135.73 38.8171 135.206 37.8154C134.698 36.798 134.443 35.6343 134.443 34.3242ZM144.524 34.3705C144.524 33.5844 144.369 32.914 144.061 32.3591C143.753 31.7888 143.337 31.3572 142.813 31.0643C142.289 30.7561 141.726 30.602 141.125 30.602C140.524 30.602 139.969 30.7484 139.46 31.0412C138.951 31.3341 138.535 31.7656 138.212 32.336C137.904 32.8908 137.749 33.5536 137.749 34.3242C137.749 35.0951 137.904 35.7731 138.212 36.3589C138.535 36.9291 138.951 37.3682 139.46 37.6767C139.984 37.9847 140.539 38.1391 141.125 38.1391C141.726 38.1391 142.289 37.9927 142.813 37.6996C143.337 37.3916 143.753 36.9597 144.061 36.4052C144.369 35.8346 144.524 35.1566 144.524 34.3705Z" fill="white"/>
<path d="M161.926 34.0931C161.926 34.5555 161.895 34.9717 161.834 35.3417H152.47C152.548 36.2665 152.871 36.9908 153.441 37.5147C154.012 38.0391 154.713 38.3008 155.545 38.3008C156.748 38.3008 157.603 37.7845 158.112 36.7519H161.603C161.233 37.9848 160.524 39.0021 159.476 39.8035C158.428 40.5897 157.14 40.9829 155.614 40.9829C154.382 40.9829 153.272 40.7131 152.285 40.1735C151.314 39.6186 150.551 38.8405 149.997 37.8384C149.457 36.8367 149.188 35.6807 149.188 34.3706C149.188 33.0451 149.457 31.8813 149.997 30.8795C150.536 29.8776 151.291 29.107 152.262 28.5675C153.233 28.028 154.351 27.7583 155.614 27.7583C156.832 27.7583 157.919 28.0204 158.874 28.5444C159.846 29.0684 160.593 29.816 161.117 30.787C161.657 31.7426 161.926 32.8447 161.926 34.0931ZM158.574 33.1683C158.558 32.336 158.258 31.6733 157.672 31.18C157.087 30.6714 156.37 30.4171 155.522 30.4171C154.721 30.4171 154.043 30.6637 153.488 31.1569C152.948 31.6347 152.617 32.3052 152.493 33.1683H158.574Z" fill="white"/>
<path d="M166.602 29.9545C167.018 29.2764 167.558 28.7446 168.22 28.3592C168.899 27.9739 169.669 27.7812 170.533 27.7812V31.1799H169.677C168.66 31.1799 167.889 31.4189 167.365 31.8967C166.856 32.3745 166.602 33.2067 166.602 34.3935V40.7745H163.365V27.9662H166.602V29.9545Z" fill="white"/>
</g>
<defs>
<clipPath id="clip0_476_213">
<rect width="127" height="34" fill="white" transform="translate(44 14)"/>
</clipPath>
</defs>
</svg>
