<svg width="216" height="64" viewBox="0 0 216 64" fill="none" xmlns="http://www.w3.org/2000/svg">
<g clip-path="url(#clip0_476_241)">
<path d="M20.0176 34.8951L27.38 31.6899L31.6177 34.0938L32.4738 41.9799L27.2516 41.9379L28.0221 36.4555L27.1232 35.9492L22.7143 39.3231L20.0176 34.8951Z" fill="white"/>
<path d="M31.9316 33.8997L38.5328 38.7304L41.1384 34.0738L35.84 31.9414V30.8969L41.1384 28.7209L38.5328 24.1079L31.9316 28.9385V33.8997Z" fill="white"/>
<path d="M31.6177 28.2035L32.4738 20.3174L27.2516 20.4017L28.0221 25.8841L27.1232 26.3901L22.6715 23.0164L20.0176 27.4022L27.38 30.6073L31.6177 28.2035Z" fill="white"/>
<path d="M73.6106 29.437V43.5358H78.8563V25.5684H71.2168V29.437H73.6106Z" fill="white"/>
<path d="M73.4462 23.0441C73.9271 23.5468 74.6593 23.7981 75.6428 23.7981C76.6268 23.7981 77.3477 23.5468 77.8064 23.0441C78.2878 22.5194 78.5278 21.8636 78.5278 21.0769C78.5278 20.2681 78.2878 19.6123 77.8064 19.1097C77.3477 18.5851 76.6268 18.3228 75.6428 18.3228C74.6593 18.3228 73.9271 18.5851 73.4462 19.1097C72.9874 19.6123 72.7578 20.2681 72.7578 21.0769C72.7578 21.8636 72.9874 22.5194 73.4462 23.0441Z" fill="white"/>
<path d="M55.3491 43.1422C56.8352 43.8197 58.6603 44.1588 60.8239 44.1588C62.8569 44.1588 64.6051 43.842 66.0701 43.2078C67.5345 42.5741 68.6599 41.6886 69.4468 40.5524C70.2559 39.3935 70.66 38.0493 70.66 36.5193C70.66 35.033 70.2781 33.7762 69.5129 32.7487C68.7693 31.6996 67.7317 30.8799 66.3978 30.29C65.0644 29.6778 63.5236 29.2952 61.7749 29.1424L59.9389 28.9785C58.846 28.8908 58.0591 28.596 57.5782 28.0931C57.0973 27.5904 56.8568 27.0002 56.8568 26.3228C56.8568 25.7979 56.9884 25.3172 57.25 24.8801C57.5127 24.421 57.9059 24.0604 58.4306 23.798C58.9771 23.5358 59.6438 23.4046 60.4307 23.4046C61.2609 23.4046 61.9498 23.5575 62.4962 23.8637C62.6165 23.9284 62.7307 23.9976 62.838 24.0709L62.864 24.0891C62.9041 24.1169 62.9436 24.1456 62.982 24.1747C63.314 24.4284 63.5783 24.7291 63.7749 25.0767C64.0587 25.5577 64.2017 26.0931 64.2017 26.6833H69.4468C69.4468 25.1095 69.0861 23.7433 68.3653 22.585C67.6439 21.4046 66.6057 20.4976 65.2507 19.8635C63.9168 19.2077 62.3105 18.8799 60.4307 18.8799C58.6381 18.8799 57.0865 19.1861 55.7748 19.798C54.4636 20.3883 53.4362 21.2407 52.6932 22.3553C51.9713 23.4701 51.6106 24.7927 51.6106 26.3228C51.6106 28.4428 52.3217 30.1477 53.7422 31.4375C55.1628 32.7271 57.0648 33.4702 59.4472 33.6669L61.2506 33.8308C62.7145 33.962 63.7749 34.2572 64.4308 34.716C65.0861 35.1531 65.4143 35.7542 65.4143 36.5193C65.4143 36.8709 65.3568 37.2006 65.2415 37.5087C65.1559 37.7373 65.0389 37.9539 64.89 38.1587C64.5396 38.6179 64.0262 38.9781 63.3487 39.2407C62.6712 39.5029 61.8296 39.6339 60.8239 39.6339C59.7093 39.6339 58.8022 39.4812 58.103 39.1752C57.4033 38.847 56.879 38.4208 56.5286 37.8965C56.201 37.3717 56.0374 36.8036 56.0374 36.1914H50.8242C50.8242 37.7433 51.2066 39.1205 51.9713 40.3228C52.7365 41.5029 53.8625 42.4431 55.3491 43.1422Z" fill="white"/>
<path d="M90.5622 43.7647C88.748 43.7647 87.2835 43.5465 86.169 43.1089C85.0539 42.6502 84.2345 41.8963 83.7097 40.8473C83.2071 39.776 82.9558 38.3333 82.9558 36.5189V29.4042H80.2344V25.5682H82.9558V20.7158H87.8408V25.5682H93.0871V29.4042H87.8408V36.7158C87.8408 37.5683 88.0596 38.2239 88.4967 38.6826C88.9554 39.1202 89.6004 39.3384 90.4312 39.3384H93.0871V43.7647H90.5622Z" fill="white"/>
<path fill-rule="evenodd" clip-rule="evenodd" d="M99.4018 43.3721C100.582 43.8969 101.937 44.159 103.467 44.159C104.975 44.159 106.309 43.8969 107.468 43.3721C108.626 42.8473 109.588 42.1151 110.352 41.1755C111.118 40.2353 111.632 39.1646 111.893 37.9623H107.074C106.856 38.5088 106.44 38.9675 105.828 39.339C105.216 39.7111 104.429 39.8968 103.467 39.8968C102.872 39.8968 102.339 39.8264 101.87 39.6851C101.513 39.5779 101.193 39.43 100.91 39.241C100.254 38.8039 99.7733 38.1914 99.4673 37.405C99.3823 37.1809 99.3097 36.9464 99.2485 36.7022C99.1862 36.4549 99.1359 36.1975 99.098 35.9295H112.221V34.159C112.221 32.5196 111.872 31.0114 111.172 29.6345C110.473 28.2353 109.456 27.1097 108.123 26.2573C106.812 25.383 105.194 24.9458 103.27 24.9458C101.806 24.9458 100.494 25.2082 99.3357 25.7328C98.2 26.2353 97.249 26.9239 96.4838 27.7982C95.7191 28.6725 95.1288 29.6672 94.7128 30.782C94.3196 31.8747 94.123 33.0222 94.123 34.2244V34.8802C94.123 36.0388 94.3196 37.1753 94.7128 38.29C95.1288 39.3829 95.7191 40.3772 96.4838 41.2735C97.2707 42.1482 98.2428 42.8473 99.4018 43.3721ZM99.1884 32.6875C99.203 32.6181 99.2182 32.5497 99.235 32.4824C99.2805 32.297 99.333 32.1194 99.3926 31.9497C99.4262 31.853 99.4619 31.7588 99.5003 31.6672C99.828 30.8583 100.309 30.2464 100.943 29.8311C101.18 29.6759 101.437 29.5497 101.712 29.4526C102.176 29.2897 102.696 29.2082 103.27 29.2082C104.167 29.2082 104.91 29.4159 105.5 29.8311C106.112 30.2245 106.571 30.8037 106.877 31.5687C106.902 31.6305 106.925 31.6933 106.948 31.7569C106.984 31.8583 107.018 31.9623 107.049 32.069C107.095 32.2276 107.136 32.3918 107.172 32.5616C107.198 32.6867 107.22 32.8147 107.24 32.9459H99.138C99.1532 32.8583 99.17 32.7722 99.1884 32.6875Z" fill="white"/>
<path d="M114.385 43.5359V25.5685H118.549V30.0937C118.605 29.8247 118.67 29.5666 118.742 29.319C118.804 29.1104 118.87 28.9093 118.942 28.716C119.401 27.4919 120.09 26.574 121.008 25.9618C121.926 25.328 123.051 25.0112 124.385 25.0112H124.614C125.97 25.0112 127.095 25.328 127.991 25.9618C128.909 26.574 129.598 27.4919 130.057 28.716L130.093 28.8084L130.124 28.8929C130.145 28.8332 130.166 28.7744 130.188 28.716C130.669 27.4919 131.369 26.574 132.287 25.9618C133.204 25.328 134.33 25.0112 135.664 25.0112H135.893C137.248 25.0112 138.385 25.328 139.303 25.9618C140.243 26.574 140.953 27.4919 141.434 28.716C141.915 29.9401 142.156 31.4702 142.156 33.3062V43.5359H136.909V33.0111C136.909 32.0274 136.647 31.2297 136.122 30.6178C135.62 30.0056 134.899 29.6996 133.959 29.6996C133.019 29.6996 132.276 30.0167 131.729 30.6505C131.183 31.2624 130.909 32.0821 130.909 33.1096V43.5359H125.631V33.0111C125.631 32.0274 125.368 31.2297 124.844 30.6178C124.341 30.0056 123.631 29.6996 122.713 29.6996C121.751 29.6996 120.997 30.0167 120.45 30.6505C119.904 31.2624 119.63 32.0821 119.63 33.1096V43.5359H114.385Z" fill="white"/>
<path fill-rule="evenodd" clip-rule="evenodd" d="M156.169 40.0737V43.536H160.332V32.5194C160.332 30.8581 160.005 29.503 159.349 28.4537C158.693 27.3827 157.732 26.5849 156.464 26.0604C155.218 25.5358 153.677 25.2734 151.841 25.2734C151.443 25.2734 151.028 25.2777 150.594 25.2864C150.339 25.2916 150.076 25.2982 149.808 25.3061C149.087 25.3281 148.387 25.3608 147.71 25.4046L147.192 25.4395C146.926 25.4579 146.677 25.4761 146.442 25.4947C146.265 25.5084 146.098 25.5221 145.939 25.5358V29.9621C146.617 29.9183 147.371 29.8745 148.202 29.8309C148.434 29.8188 148.664 29.8074 148.893 29.7968C149.223 29.7816 149.549 29.7683 149.871 29.7568C150.125 29.7475 150.378 29.7393 150.628 29.7324C151.414 29.7105 152.048 29.6997 152.529 29.6997C153.491 29.6997 154.19 29.9291 154.628 30.3882C155.065 30.8473 155.283 31.5357 155.283 32.4539V32.5194H152.038C150.442 32.5194 149.032 32.7271 147.808 33.1424C146.584 33.5357 145.633 34.1587 144.956 35.0111C144.278 35.8419 143.939 36.9129 143.939 38.2242C143.939 39.4265 144.212 40.4647 144.759 41.3394C145.305 42.1918 146.059 42.8471 147.021 43.3064C148.005 43.7651 149.142 43.9947 150.431 43.9947C151.677 43.9947 152.726 43.7651 153.579 43.3064C154.453 42.8471 155.131 42.1918 155.611 41.3394C155.696 41.1953 155.775 41.0464 155.849 40.8915C155.953 40.6727 156.045 40.4425 156.127 40.201L156.169 40.0737ZM155.283 36.8802V35.4375H152.005C151.087 35.4375 150.377 35.6669 149.874 36.126C149.393 36.5631 149.152 37.1642 149.152 37.9291C149.152 38.2892 149.212 38.6169 149.332 38.9115C149.453 39.2072 149.633 39.4699 149.874 39.7C150.377 40.1371 151.087 40.3553 152.005 40.3553C152.179 40.3553 152.348 40.3467 152.511 40.3299C152.645 40.3158 152.774 40.2958 152.899 40.2703C153.14 40.2216 153.367 40.1517 153.579 40.0602C154.06 39.8419 154.453 39.4812 154.758 38.9781C155.065 38.4755 155.24 37.7763 155.283 36.8802Z" fill="white"/>
<path d="M163.473 43.5362V25.5688H167.637V31.4992C167.836 29.8063 168.339 28.4412 169.145 27.4048C170.238 26.0278 171.811 25.3394 173.867 25.3394H174.555V29.8638H173.243C171.801 29.8638 170.686 30.2572 169.899 31.0441C169.112 31.8091 168.718 32.924 168.718 34.3883V43.5362H163.473Z" fill="white"/>
<path d="M181.207 35.1425H182.945L188.616 43.5362H194.518L187.326 33.2278L193.239 25.5688H187.732L181.207 34.1119V19.6016H175.961V43.5362H181.207V35.1425Z" fill="white"/>
</g>
<defs>
<clipPath id="clip0_476_241">
<rect width="175" height="27" fill="white" transform="translate(20 18)"/>
</clipPath>
</defs>
</svg>
