<svg width="216" height="64" viewBox="0 0 216 64" fill="none" xmlns="http://www.w3.org/2000/svg">
<g clip-path="url(#clip0_476_227)">
<path d="M71.655 16.46H76.6874L71.2035 39.5439H62.353L56.8691 16.46H61.9018L65.9976 35.4702H67.5592L71.655 16.46Z" fill="white"/>
<path d="M81.4882 32.9926C81.5113 34.0337 81.7889 34.7919 82.3211 35.2671C82.8763 35.7197 83.6631 35.946 84.6814 35.946C86.8331 35.946 88.7537 35.8781 90.4428 35.7424L91.4147 35.6405L91.4842 39.0014C88.8232 39.635 86.4165 39.9519 84.2648 39.9519C81.6503 39.9519 79.7527 39.2729 78.5728 37.9149C77.3925 36.5571 76.8027 34.3505 76.8027 31.2953C76.8027 25.2075 79.3595 22.1636 84.4729 22.1636C89.5171 22.1636 92.0394 24.7209 92.0394 29.8356L91.6923 32.9926H81.4882ZM87.4579 29.5301C87.4579 28.1722 87.2382 27.233 86.7986 26.7125C86.3589 26.1693 85.5837 25.8977 84.4729 25.8977C83.3855 25.8977 82.6102 26.1806 82.1475 26.7464C81.7079 27.2896 81.4767 28.2174 81.4533 29.5301H87.4579Z" fill="white"/>
<path d="M94.668 39.5444V22.5709H99.2841V24.3701C101.228 23.2386 103.079 22.503 104.837 22.1636V26.7464C102.963 27.1312 101.355 27.5272 100.013 27.9346L99.3187 28.1722V39.5444H94.668Z" fill="white"/>
<path d="M116.501 26.4406H112.232V33.3997C112.232 34.0787 112.244 34.5652 112.267 34.8594C112.313 35.131 112.44 35.3686 112.649 35.5723C112.88 35.776 113.227 35.8779 113.69 35.8779L116.328 35.81L116.536 39.4424C114.985 39.7819 113.806 39.9516 112.996 39.9516C110.913 39.9516 109.49 39.4987 108.727 38.5936C107.963 37.6657 107.581 35.9684 107.581 33.5016V26.4406H105.533V22.5707H107.581V17.8521H112.232V22.5707H116.501V26.4406Z" fill="white"/>
<path d="M118.836 39.5441V22.5706H123.487V39.5441H118.836ZM118.836 20.398V15.7812H123.487V20.398H118.836Z" fill="white"/>
<path d="M142.813 41.649C142.813 43.5955 142.049 45.0323 140.522 45.9603C138.995 46.8883 136.924 47.3521 134.31 47.3521C131.718 47.3521 129.717 47.0126 128.305 46.3336C126.917 45.655 126.223 44.4213 126.223 42.6337C126.223 41.2077 127.056 39.8614 128.722 38.5939C127.866 38.028 127.437 37.168 127.437 36.0139C127.437 35.5613 127.785 34.8144 128.479 33.7734L128.791 33.2982C127.218 32.1892 126.431 30.5598 126.431 28.4098C126.431 26.2372 127.09 24.6643 128.409 23.6912C129.751 22.718 131.521 22.2314 133.72 22.2314C134.714 22.2314 135.698 22.3446 136.67 22.5709L137.225 22.6727L142.813 22.503V26.1354L140.21 25.9317C140.719 26.7011 140.974 27.4706 140.974 28.2401C140.974 30.5032 140.384 32.0647 139.203 32.9247C138.024 33.7847 136.172 34.2147 133.65 34.2147C133.118 34.2147 132.644 34.1695 132.227 34.0789C131.996 34.6673 131.88 35.1539 131.88 35.5386C131.88 35.9008 132.077 36.1497 132.47 36.2855C132.863 36.4213 133.789 36.5005 135.247 36.5231C138.162 36.5457 140.152 36.9306 141.217 37.6772C142.281 38.4016 142.813 39.7254 142.813 41.649ZM130.804 42.1583C130.804 43.1313 132.019 43.618 134.448 43.618C136.901 43.618 138.128 43.0521 138.128 41.9205C138.128 41.3095 137.919 40.9137 137.503 40.7326C137.086 40.5742 136.207 40.4837 134.865 40.4611L131.741 40.2234C131.117 40.8344 130.804 41.4793 130.804 42.1583ZM131.082 28.274C131.082 29.9261 131.961 30.7521 133.72 30.7521C135.501 30.7521 136.392 29.9261 136.392 28.274C136.392 26.5993 135.501 25.7619 133.72 25.7619C131.961 25.7619 131.082 26.5993 131.082 28.274Z" fill="white"/>
<path d="M145.874 24.5059C147.101 22.9443 149.148 22.1636 152.018 22.1636C154.887 22.1636 156.935 22.9443 158.161 24.5059C159.387 26.0448 160.001 28.2174 160.001 31.0237C160.001 36.9757 157.34 39.9519 152.018 39.9519C146.696 39.9519 144.035 36.9757 144.035 31.0237C144.035 28.2174 144.648 26.0448 145.874 24.5059ZM149.45 34.8597C149.935 35.6745 150.791 36.0818 152.018 36.0818C153.244 36.0818 154.089 35.6745 154.552 34.8597C155.037 34.045 155.28 32.7663 155.28 31.0237C155.28 29.2811 155.037 28.0138 154.552 27.2217C154.089 26.4296 153.244 26.0335 152.018 26.0335C150.791 26.0335 149.935 26.4296 149.45 27.2217C148.987 28.0138 148.755 29.2811 148.755 31.0237C148.755 32.7663 148.987 34.045 149.45 34.8597Z" fill="white"/>
</g>
<defs>
<clipPath id="clip0_476_227">
<rect width="104" height="33" fill="white" transform="translate(56 15)"/>
</clipPath>
</defs>
</svg>
