<svg width="216" height="64" viewBox="0 0 216 64" fill="none" xmlns="http://www.w3.org/2000/svg">
<g clip-path="url(#clip0_476_185)">
<path d="M44.3805 18.5741H32.7344V14.9346H44.3805C48.4007 14.9346 51.6595 18.1935 51.6595 22.2135V33.8598H48.02V22.2135C48.02 20.2035 46.3906 18.5741 44.3805 18.5741Z" fill="white"/>
<path d="M31.279 38.9547H42.9251V42.5941H31.279C27.2589 42.5941 24 39.3354 24 35.3152V23.6689H27.6395V35.3152C27.6395 37.3253 29.2689 38.9547 31.279 38.9547Z" fill="white"/>
<path fill-rule="evenodd" clip-rule="evenodd" d="M45.1085 28.7643C45.1085 32.7844 41.8498 36.0432 37.8297 36.0432C33.8097 36.0432 30.5508 32.7844 30.5508 28.7643C30.5508 24.7442 33.8097 21.4854 37.8297 21.4854C41.8498 21.4854 45.1085 24.7442 45.1085 28.7643ZM41.4692 28.7643C41.4692 30.7743 39.8397 32.4038 37.8297 32.4038C35.8197 32.4038 34.1903 30.7743 34.1903 28.7643C34.1903 26.7543 35.8197 25.1248 37.8297 25.1248C39.8397 25.1248 41.4692 26.7543 41.4692 28.7643Z" fill="white"/>
<path d="M67.1907 40.2764C65.8125 40.2764 64.5718 40.0402 63.4686 39.5674C62.3659 39.0754 61.4993 38.3861 60.8693 37.4999C60.239 36.6136 59.9238 35.5797 59.9238 34.3979H63.528C63.6066 35.2841 63.9512 36.0128 64.562 36.5842C65.1919 37.1552 66.0683 37.4409 67.1907 37.4409C68.3528 37.4409 69.2587 37.165 69.9087 36.6136C70.5583 36.0426 70.8834 35.314 70.8834 34.4278C70.8834 33.7385 70.6766 33.1773 70.2632 32.7438C69.869 32.3105 69.3671 31.9757 68.7564 31.7394C68.1658 31.5031 67.3385 31.2471 66.275 30.9714C64.9361 30.6169 63.8432 30.2624 62.9962 29.9079C62.169 29.5338 61.46 28.9627 60.8693 28.1946C60.2783 27.4266 59.9831 26.4025 59.9831 25.1224C59.9831 23.9408 60.2783 22.9069 60.8693 22.0207C61.46 21.1345 62.2873 20.4551 63.3507 19.9824C64.4142 19.5097 65.6451 19.2734 67.0433 19.2734C69.0323 19.2734 70.657 19.7756 71.9173 20.78C73.1973 21.7647 73.9063 23.1235 74.0442 24.8565H70.3221C70.2632 24.1082 69.9087 23.4681 69.2587 22.9364C68.6087 22.4047 67.7523 22.1388 66.6889 22.1388C65.7237 22.1388 64.9361 22.385 64.3254 22.8773C63.715 23.3697 63.4097 24.0787 63.4097 25.0043C63.4097 25.6344 63.5968 26.1563 63.9709 26.5699C64.3647 26.9638 64.8571 27.2789 65.4482 27.5152C66.0389 27.7515 66.8461 28.0075 67.8702 28.2832C69.2292 28.6574 70.332 29.0316 71.1789 29.4058C72.0454 29.7799 72.7741 30.3609 73.3647 31.1486C73.9755 31.9167 74.2804 32.9505 74.2804 34.2505C74.2804 35.294 73.9951 36.2788 73.4241 37.2043C72.8723 38.1298 72.0553 38.8785 70.9722 39.4495C69.9087 40.0009 68.6484 40.2764 67.1907 40.2764Z" fill="white"/>
<path d="M84.9894 23.5273C86.2698 23.5273 87.4119 23.7932 88.4164 24.3249C89.4402 24.8566 90.2379 25.6444 90.809 26.6882C91.38 27.7319 91.6657 28.9923 91.6657 30.4693V40.0698H88.3276V30.9715C88.3276 29.5142 87.9632 28.4015 87.2346 27.6334C86.506 26.8457 85.5113 26.4518 84.251 26.4518C82.9906 26.4518 81.9861 26.8457 81.2379 27.6334C80.5092 28.4015 80.1449 29.5142 80.1449 30.9715V40.0698H76.7773V23.7932H80.1449V25.6542C80.6963 24.9847 81.3955 24.4628 82.2424 24.0886C83.1089 23.7144 84.0246 23.5273 84.9894 23.5273Z" fill="white"/>
<path d="M93.3613 31.8577C93.3613 30.2231 93.6961 28.7757 94.3658 27.5153C95.0551 26.2549 95.9806 25.28 97.1424 24.5908C98.3241 23.8818 99.6237 23.5273 101.042 23.5273C102.322 23.5273 103.435 23.7834 104.38 24.2954C105.345 24.7877 106.113 25.4081 106.684 26.1564V23.7932H110.081V40.0698H106.684V37.6477C106.113 38.4156 105.335 39.0558 104.35 39.5675C103.366 40.0796 102.243 40.3358 100.983 40.3358C99.5844 40.3358 98.3044 39.9813 97.1424 39.2724C95.9806 38.5437 95.0551 37.5393 94.3658 36.2592C93.6961 34.9596 93.3613 33.4922 93.3613 31.8577ZM106.684 31.9168C106.684 30.7942 106.448 29.8194 105.975 28.9923C105.522 28.1652 104.921 27.535 104.173 27.1017C103.425 26.6685 102.617 26.4518 101.751 26.4518C100.884 26.4518 100.077 26.6685 99.3286 27.1017C98.5799 27.5153 97.9696 28.1356 97.4968 28.9628C97.0441 29.7702 96.8177 30.7351 96.8177 31.8577C96.8177 32.9801 97.0441 33.9649 97.4968 34.8118C97.9696 35.6584 98.5799 36.3084 99.3286 36.7615C100.097 37.1946 100.904 37.4111 101.751 37.4111C102.617 37.4111 103.425 37.1946 104.173 36.7615C104.921 36.328 105.522 35.698 105.975 34.8708C106.448 34.0239 106.684 33.0394 106.684 31.9168Z" fill="white"/>
<path d="M116.395 26.1859C116.966 25.4376 117.744 24.8074 118.729 24.2954C119.713 23.7834 120.826 23.5273 122.067 23.5273C123.485 23.5273 124.774 23.8818 125.937 24.5908C127.118 25.28 128.044 26.2549 128.713 27.5153C129.383 28.7757 129.718 30.2231 129.718 31.8577C129.718 33.4922 129.383 34.9596 128.713 36.2592C128.044 37.5393 127.118 38.5437 125.937 39.2724C124.774 39.9813 123.485 40.3358 122.067 40.3358C120.826 40.3358 119.723 40.0894 118.758 39.5974C117.793 39.0853 117.006 38.4549 116.395 37.7067V47.8095H113.027V23.7932H116.395V26.1859ZM126.291 31.8577C126.291 30.7351 126.055 29.7702 125.582 28.9628C125.129 28.1356 124.519 27.5153 123.751 27.1017C123.002 26.6685 122.195 26.4518 121.328 26.4518C120.481 26.4518 119.674 26.6685 118.906 27.1017C118.158 27.535 117.547 28.1652 117.074 28.9923C116.622 29.8194 116.395 30.7942 116.395 31.9168C116.395 33.0394 116.622 34.0239 117.074 34.8708C117.547 35.698 118.158 36.328 118.906 36.7615C119.674 37.1946 120.481 37.4111 121.328 37.4111C122.195 37.4111 123.002 37.1946 123.751 36.7615C124.519 36.3084 125.129 35.6584 125.582 34.8118C126.055 33.9649 126.291 32.9801 126.291 31.8577Z" fill="white"/>
<path d="M138.335 40.2764C136.957 40.2764 135.716 40.0402 134.613 39.5674C133.51 39.0754 132.644 38.3861 132.014 37.4999C131.384 36.6136 131.068 35.5797 131.068 34.3979H134.673C134.751 35.2841 135.096 36.0128 135.706 36.5842C136.336 37.1552 137.213 37.4409 138.335 37.4409C139.497 37.4409 140.403 37.165 141.053 36.6136C141.703 36.0426 142.028 35.314 142.028 34.4278C142.028 33.7385 141.821 33.1773 141.408 32.7438C141.014 32.3105 140.512 31.9757 139.901 31.7394C139.31 31.5031 138.483 31.2471 137.42 30.9714C136.081 30.6169 134.987 30.2624 134.141 29.9079C133.314 29.5338 132.605 28.9627 132.014 28.1946C131.423 27.4266 131.128 26.4025 131.128 25.1224C131.128 23.9408 131.423 22.9069 132.014 22.0207C132.605 21.1345 133.432 20.4551 134.495 19.9824C135.559 19.5097 136.79 19.2734 138.188 19.2734C140.177 19.2734 141.802 19.7756 143.062 20.78C144.342 21.7647 145.051 23.1235 145.189 24.8565H141.467C141.408 24.1082 141.053 23.4681 140.403 22.9364C139.753 22.4047 138.896 22.1388 137.833 22.1388C136.868 22.1388 136.081 22.385 135.47 22.8773C134.86 23.3697 134.554 24.0787 134.554 25.0043C134.554 25.6344 134.741 26.1563 135.115 26.5699C135.509 26.9638 136.002 27.2789 136.592 27.5152C137.183 27.7515 137.991 28.0075 139.015 28.2832C140.374 28.6574 141.477 29.0316 142.323 29.4058C143.19 29.7799 143.919 30.3609 144.509 31.1486C145.12 31.9167 145.425 32.9505 145.425 34.2505C145.425 35.294 145.14 36.2788 144.568 37.2043C144.017 38.1298 143.2 38.8785 142.117 39.4495C141.053 40.0009 139.793 40.2764 138.335 40.2764Z" fill="white"/>
<path d="M156.341 23.5277C157.581 23.5277 158.685 23.7936 159.649 24.3253C160.634 24.857 161.402 25.6448 161.954 26.6885C162.525 27.7323 162.81 28.9926 162.81 30.4697V40.0702H159.472V30.9719C159.472 29.5145 159.108 28.4019 158.379 27.6338C157.651 26.8461 156.656 26.4522 155.396 26.4522C154.135 26.4522 153.131 26.8461 152.382 27.6338C151.654 28.4019 151.289 29.5145 151.289 30.9719V40.0702H147.922V18.2104H151.289V25.6841C151.861 24.9949 152.579 24.4631 153.446 24.089C154.332 23.7148 155.297 23.5277 156.341 23.5277Z" fill="white"/>
<path d="M172.688 40.3358C171.152 40.3358 169.764 39.9912 168.523 39.3018C167.283 38.5929 166.308 37.608 165.599 36.3477C164.89 35.0677 164.535 33.5908 164.535 31.9168C164.535 30.2625 164.899 28.7953 165.628 27.5153C166.357 26.2352 167.351 25.2505 168.612 24.5612C169.872 23.872 171.28 23.5273 172.836 23.5273C174.392 23.5273 175.8 23.872 177.06 24.5612C178.321 25.2505 179.315 26.2352 180.044 27.5153C180.773 28.7953 181.137 30.2625 181.137 31.9168C181.137 33.5711 180.763 35.0382 180.014 36.3182C179.266 37.5982 178.242 38.5929 176.942 39.3018C175.662 39.9912 174.244 40.3358 172.688 40.3358ZM172.688 37.4111C173.555 37.4111 174.362 37.2044 175.111 36.791C175.879 36.3775 176.499 35.757 176.972 34.9297C177.444 34.1029 177.681 33.0984 177.681 31.9168C177.681 30.7352 177.454 29.7407 177.001 28.9332C176.548 28.1061 175.947 27.4857 175.199 27.0722C174.451 26.6586 173.643 26.4518 172.777 26.4518C171.911 26.4518 171.103 26.6586 170.355 27.0722C169.626 27.4857 169.045 28.1061 168.612 28.9332C168.179 29.7407 167.962 30.7352 167.962 31.9168C167.962 33.6694 168.405 35.0284 169.291 35.9932C170.197 36.9387 171.329 37.4111 172.688 37.4111Z" fill="white"/>
<path d="M186.918 26.5403V35.5502C186.918 36.1605 187.056 36.6038 187.332 36.8793C187.627 37.1355 188.12 37.2637 188.809 37.2637H190.877V40.0697H188.218C186.702 40.0697 185.54 39.7152 184.733 39.0062C183.925 38.2973 183.521 37.1454 183.521 35.5502V26.5403H181.602V23.7931H183.521V19.7461H186.918V23.7931H190.877V26.5403H186.918Z" fill="white"/>
</g>
<defs>
<clipPath id="clip0_476_185">
<rect width="167" height="34" fill="white" transform="translate(24 14)"/>
</clipPath>
</defs>
</svg>
