<svg width="216" height="64" viewBox="0 0 216 64" fill="none" xmlns="http://www.w3.org/2000/svg">
<g clip-path="url(#clip0_476_171)">
<path d="M26.877 43.089V18.3228H31.5312L43.4944 35.7653V18.3228H48.1487V43.089H43.4944L31.5312 25.6818V43.089H26.877Z" fill="white"/>
<path d="M59.9194 43.5136C58.1011 43.5136 56.4892 43.1363 55.0833 42.3813C53.6773 41.6266 52.5743 40.5651 51.7742 39.1972C50.9741 37.8292 50.5742 36.2487 50.5742 34.4562C50.5742 32.6399 50.962 31.0243 51.738 29.609C52.5377 28.1938 53.6287 27.097 55.0105 26.3187C56.4164 25.5167 58.0649 25.1157 59.9556 25.1157C61.7256 25.1157 63.2888 25.4931 64.6465 26.2479C66.0041 27.0027 67.0585 28.0405 67.81 29.3614C68.5859 30.6586 68.9737 32.1092 68.9737 33.7131C68.9737 33.9726 68.9616 34.2439 68.9371 34.5269C68.9371 34.8099 68.9251 35.1046 68.9009 35.4115H55.1923C55.2892 36.7794 55.774 37.8527 56.6469 38.6312C57.5436 39.4093 58.6225 39.7987 59.8832 39.7987C60.8285 39.7987 61.6162 39.598 62.2465 39.1972C62.901 38.7725 63.3858 38.23 63.7011 37.5697H68.4282C68.0887 38.6782 67.5191 39.6923 66.719 40.6125C65.9434 41.5088 64.9739 42.2161 63.8102 42.7351C62.6709 43.2541 61.374 43.5136 59.9194 43.5136ZM59.9556 28.7953C58.8164 28.7953 57.8103 29.1137 56.9377 29.7506C56.0648 30.3638 55.5073 31.3073 55.2651 32.581H64.2466C64.1738 31.4252 63.7374 30.5053 62.9376 29.8213C62.1375 29.1373 61.1435 28.7953 59.9556 28.7953Z" fill="white"/>
<path d="M68.1191 43.0877L74.664 34.3134L68.1191 25.5391H73.1008L77.6823 31.766L82.2275 25.5391H87.2455L80.6639 34.3134L87.2455 43.0877H82.2275L77.6823 36.8608L73.1008 43.0877H68.1191Z" fill="white"/>
<path d="M96.4272 43.0877C94.5361 43.0877 93.0212 42.6396 91.8815 41.7432C90.7423 40.8469 90.1727 39.255 90.1727 36.9669V29.3248H87.082V25.5391H90.1727L90.7182 20.8335H94.827V25.5391H99.6997V29.3248H94.827V37.0025C94.827 37.8515 95.0088 38.4413 95.3724 38.7713C95.7602 39.0781 96.4147 39.2312 97.3359 39.2312H99.5907V43.0877H96.4272Z" fill="white"/>
<path d="M101.877 43.0889V25.5403H105.986L106.386 27.9108C106.968 27.0616 107.732 26.3894 108.677 25.8941C109.646 25.3752 110.762 25.1157 112.022 25.1157C114.81 25.1157 116.786 26.1654 117.949 28.2646C118.604 27.2975 119.476 26.5309 120.567 25.9649C121.682 25.3988 122.894 25.1157 124.203 25.1157C126.555 25.1157 128.361 25.7998 129.622 27.1678C130.882 28.5358 131.512 30.5407 131.512 33.1824V43.0889H126.858V33.607C126.858 32.0975 126.555 30.9417 125.949 30.1398C125.367 29.3378 124.458 28.9368 123.222 28.9368C121.961 28.9368 120.943 29.385 120.167 30.2812C119.416 31.1776 119.04 32.4277 119.04 34.0316V43.0889H114.386V33.607C114.386 32.0975 114.083 30.9417 113.477 30.1398C112.871 29.3378 111.937 28.9368 110.677 28.9368C109.44 28.9368 108.434 29.385 107.659 30.2812C106.907 31.1776 106.532 32.4277 106.532 34.0316V43.0889H101.877Z" fill="white"/>
<path d="M142.769 43.5136C141.024 43.5136 139.448 43.1242 138.042 42.346C136.66 41.5675 135.557 40.4943 134.733 39.1263C133.933 37.7348 133.533 36.1309 133.533 34.3146C133.533 32.4984 133.945 30.9063 134.769 29.5383C135.594 28.1467 136.697 27.0616 138.078 26.2833C139.484 25.5049 141.06 25.1157 142.806 25.1157C144.527 25.1157 146.078 25.5049 147.46 26.2833C148.866 27.0616 149.969 28.1467 150.769 29.5383C151.593 30.9063 152.005 32.4984 152.005 34.3146C152.005 36.1309 151.593 37.7348 150.769 39.1263C149.969 40.4943 148.866 41.5675 147.46 42.346C146.054 43.1242 144.49 43.5136 142.769 43.5136ZM142.769 39.5862C143.981 39.5862 145.036 39.1498 145.933 38.2773C146.83 37.381 147.278 36.06 147.278 34.3146C147.278 32.5692 146.83 31.2601 145.933 30.3874C145.036 29.4911 143.993 29.0429 142.806 29.0429C141.569 29.0429 140.503 29.4911 139.606 30.3874C138.733 31.2601 138.297 32.5692 138.297 34.3146C138.297 36.06 138.733 37.381 139.606 38.2773C140.503 39.1498 141.557 39.5862 142.769 39.5862Z" fill="white"/>
<path d="M158.333 43.0877L151.715 25.5391H156.588L161.169 38.8069L165.751 25.5391H170.623L163.969 43.0877H158.333Z" fill="white"/>
<path d="M179.617 43.5136C177.799 43.5136 176.186 43.1363 174.781 42.3813C173.375 41.6266 172.272 40.5651 171.471 39.1972C170.672 37.8292 170.271 36.2487 170.271 34.4562C170.271 32.6399 170.66 31.0243 171.435 29.609C172.235 28.1938 173.326 27.097 174.708 26.3187C176.114 25.5167 177.762 25.1157 179.653 25.1157C181.423 25.1157 182.986 25.4931 184.344 26.2479C185.701 27.0027 186.756 28.0405 187.507 29.3614C188.283 30.6586 188.671 32.1092 188.671 33.7131C188.671 33.9726 188.659 34.2439 188.635 34.5269C188.635 34.8099 188.622 35.1046 188.598 35.4115H174.89C174.986 36.7794 175.472 37.8527 176.344 38.6312C177.241 39.4093 178.32 39.7987 179.58 39.7987C180.526 39.7987 181.314 39.598 181.944 39.1972C182.598 38.7725 183.083 38.23 183.398 37.5697H188.125C187.786 38.6782 187.216 39.6923 186.417 40.6125C185.641 41.5088 184.671 42.2161 183.507 42.7351C182.368 43.2541 181.071 43.5136 179.617 43.5136ZM179.653 28.7953C178.514 28.7953 177.508 29.1137 176.635 29.7506C175.762 30.3638 175.205 31.3073 174.962 32.581H183.944C183.871 31.4252 183.435 30.5053 182.635 29.8213C181.835 29.1373 180.841 28.7953 179.653 28.7953Z" fill="white"/>
</g>
<defs>
<clipPath id="clip0_476_171">
<rect width="163" height="26" fill="white" transform="translate(26 18)"/>
</clipPath>
</defs>
</svg>
