<svg width="216" height="64" viewBox="0 0 216 64" fill="none" xmlns="http://www.w3.org/2000/svg">
<g clip-path="url(#clip0_476_269)">
<path d="M163.463 41.6565C162.057 41.6565 160.828 41.3466 159.776 40.7269C158.733 40.0984 157.92 39.2264 157.336 38.1109C156.753 36.9866 156.461 35.6763 156.461 34.1802C156.461 32.6132 156.748 31.2587 157.323 30.1167C157.897 28.9658 158.698 28.0805 159.723 27.4608C160.758 26.8322 161.969 26.5179 163.357 26.5179C164.798 26.5179 166.022 26.8499 167.03 27.5139C168.047 28.1779 168.807 29.1251 169.311 30.3557C169.824 31.5863 170.045 33.0514 169.974 34.7512H167.587V33.9013C167.561 32.1396 167.202 30.8249 166.513 29.9573C165.823 29.0809 164.798 28.6427 163.436 28.6427C161.978 28.6427 160.868 29.1119 160.108 30.0503C159.347 30.9887 158.967 32.3343 158.967 34.0872C158.967 35.7781 159.347 37.0884 160.108 38.0179C160.868 38.9475 161.951 39.4123 163.357 39.4123C164.303 39.4123 165.125 39.1954 165.823 38.7616C166.522 38.3278 167.07 37.7037 167.468 36.8892L169.735 37.6727C169.178 38.9386 168.339 39.9213 167.216 40.6207C166.102 41.3112 164.851 41.6565 163.463 41.6565ZM158.171 34.7512V32.8522H168.754V34.7512H158.171Z" fill="white"/>
<path d="M149.213 41.2581V26.9163H151.321V30.3822L150.977 29.9308C151.145 29.4881 151.361 29.0809 151.626 28.709C151.9 28.3372 152.206 28.0318 152.542 27.7928C152.913 27.4918 153.333 27.2616 153.801 27.1022C154.27 26.9429 154.747 26.8499 155.234 26.8234C155.72 26.788 156.175 26.8189 156.599 26.9163V29.134C156.104 29.0012 155.561 28.9658 154.968 29.0277C154.376 29.0897 153.828 29.3066 153.324 29.6784C152.864 30.006 152.506 30.4044 152.25 30.8736C152.002 31.3428 151.83 31.8519 151.733 32.4007C151.635 32.9408 151.587 33.4941 151.587 34.0606V41.2581H149.213Z" fill="white"/>
<path d="M139.955 41.6565C138.885 41.6565 137.988 41.4617 137.263 41.0722C136.547 40.6738 136.003 40.1515 135.632 39.5052C135.269 38.859 135.088 38.1507 135.088 37.3805C135.088 36.628 135.229 35.9773 135.512 35.4285C135.804 34.8707 136.211 34.4103 136.732 34.0474C137.254 33.6756 137.877 33.3834 138.602 33.1709C139.283 32.985 140.043 32.8257 140.883 32.6929C141.732 32.5512 142.589 32.4229 143.456 32.3078C144.322 32.1927 145.131 32.082 145.883 31.9758L145.034 32.4671C145.061 31.1923 144.804 30.2495 144.265 29.6386C143.734 29.0278 142.815 28.7223 141.506 28.7223C140.64 28.7223 139.88 28.9215 139.225 29.3199C138.58 29.7094 138.125 30.3469 137.859 31.2322L135.618 30.5549C135.963 29.2978 136.631 28.3107 137.621 27.5936C138.611 26.8765 139.915 26.5179 141.533 26.5179C142.833 26.5179 143.947 26.7526 144.875 27.2218C145.812 27.6821 146.484 28.3815 146.89 29.3199C147.094 29.7626 147.222 30.245 147.275 30.7674C147.328 31.2808 147.355 31.8209 147.355 32.3875V41.2581H145.259V37.8187L145.75 38.1374C145.211 39.2972 144.455 40.1736 143.482 40.7668C142.519 41.3599 141.343 41.6565 139.955 41.6565ZM140.313 39.6779C141.161 39.6779 141.895 39.5274 142.514 39.2264C143.142 38.9165 143.646 38.5137 144.026 38.0179C144.406 37.5133 144.654 36.9644 144.769 36.3713C144.901 35.9286 144.972 35.4373 144.981 34.8973C144.999 34.3484 145.007 33.9279 145.007 33.6357L145.83 33.9943C145.06 34.1005 144.305 34.2023 143.562 34.2997C142.819 34.3971 142.116 34.5033 141.453 34.6184C140.79 34.7246 140.193 34.853 139.663 35.0035C139.274 35.1274 138.907 35.2868 138.562 35.4816C138.227 35.6763 137.952 35.9286 137.74 36.2385C137.537 36.5395 137.435 36.9157 137.435 37.3673C137.435 37.7568 137.533 38.1286 137.727 38.4827C137.93 38.8368 138.24 39.1246 138.655 39.3459C139.079 39.5672 139.632 39.6779 140.313 39.6779Z" fill="white"/>
<path d="M120.659 41.258L116.283 26.903L118.631 26.9162L121.826 37.407L125.049 26.9162H127.131L130.34 37.407L133.549 26.9162H135.883L131.507 41.258H129.545L126.083 30.3556L122.622 41.258H120.659Z" fill="white"/>
<path d="M108.871 41.6565C107.801 41.6565 106.904 41.4617 106.179 41.0722C105.463 40.6738 104.919 40.1515 104.548 39.5052C104.185 38.859 104.004 38.1507 104.004 37.3805C104.004 36.628 104.145 35.9773 104.428 35.4285C104.72 34.8707 105.127 34.4103 105.648 34.0474C106.17 33.6756 106.793 33.3834 107.518 33.1709C108.199 32.985 108.959 32.8257 109.799 32.6929C110.648 32.5512 111.506 32.4229 112.372 32.3078C113.238 32.1927 114.047 32.082 114.799 31.9758L113.95 32.4671C113.977 31.1923 113.72 30.2495 113.181 29.6386C112.65 29.0278 111.731 28.7223 110.422 28.7223C109.556 28.7223 108.796 28.9215 108.141 29.3199C107.496 29.7094 107.041 30.3469 106.776 31.2322L104.535 30.5549C104.879 29.2978 105.547 28.3107 106.537 27.5936C107.527 26.8765 108.831 26.5179 110.449 26.5179C111.749 26.5179 112.863 26.7526 113.791 27.2218C114.728 27.6821 115.4 28.3815 115.806 29.3199C116.01 29.7626 116.138 30.245 116.191 30.7674C116.244 31.2808 116.271 31.8209 116.271 32.3875V41.2581H114.176V37.8187L114.666 38.1374C114.127 39.2972 113.371 40.1736 112.398 40.7668C111.435 41.3599 110.259 41.6565 108.871 41.6565ZM109.229 39.6779C110.078 39.6779 110.812 39.5274 111.43 39.2264C112.058 38.9165 112.562 38.5137 112.942 38.0179C113.322 37.5133 113.57 36.9644 113.685 36.3713C113.817 35.9286 113.888 35.4373 113.897 34.8973C113.915 34.3484 113.923 33.9279 113.923 33.6357L114.746 33.9943C113.977 34.1005 113.221 34.2023 112.478 34.2997C111.735 34.3971 111.032 34.5033 110.369 34.6184C109.706 34.7246 109.11 34.853 108.579 35.0035C108.19 35.1274 107.823 35.2868 107.478 35.4816C107.143 35.6763 106.869 35.9286 106.656 36.2385C106.453 36.5395 106.351 36.9157 106.351 37.3673C106.351 37.7568 106.449 38.1286 106.643 38.4827C106.846 38.8368 107.156 39.1246 107.571 39.3459C107.996 39.5672 108.548 39.6779 109.229 39.6779Z" fill="white"/>
<path d="M100.053 41.2581V21.7373H102.413V41.2581H100.053Z" fill="white"/>
<path d="M91.9142 41.6565C90.5085 41.6565 89.2796 41.3466 88.2275 40.7269C87.1844 40.0984 86.371 39.2264 85.7874 38.1109C85.2041 36.9866 84.9121 35.6763 84.9121 34.1802C84.9121 32.6132 85.1996 31.2587 85.7742 30.1167C86.3489 28.9658 87.1488 28.0805 88.1746 27.4608C89.2088 26.8322 90.42 26.5179 91.8081 26.5179C93.2491 26.5179 94.4737 26.8499 95.4816 27.5139C96.4981 28.1779 97.2585 29.1251 97.7623 30.3557C98.2753 31.5863 98.4961 33.0514 98.4255 34.7512H96.0383V33.9013C96.012 32.1396 95.6539 30.8249 94.9643 29.9573C94.2748 29.0809 93.2491 28.6427 91.8876 28.6427C90.429 28.6427 89.3194 29.1119 88.559 30.0503C87.7989 30.9887 87.4186 32.3343 87.4186 34.0872C87.4186 35.7781 87.7989 37.0884 88.559 38.0179C89.3194 38.9475 90.4024 39.4123 91.8081 39.4123C92.754 39.4123 93.5763 39.1954 94.2748 38.7616C94.973 38.3278 95.5214 37.7037 95.9192 36.8892L98.1868 37.6727C97.6298 38.9386 96.79 39.9213 95.6671 40.6207C94.553 41.3112 93.3023 41.6565 91.9142 41.6565ZM86.6229 34.7512V32.8522H97.2056V34.7512H86.6229Z" fill="white"/>
<path d="M76.9927 41.6564C75.6579 41.6564 74.5131 41.3244 73.5582 40.6604C72.6033 39.9876 71.865 39.0802 71.3436 37.9382C70.8309 36.7961 70.5742 35.508 70.5742 34.0738C70.5742 32.6396 70.8309 31.3515 71.3436 30.2095C71.865 29.0675 72.6033 28.1689 73.5582 27.5138C74.5131 26.8498 75.6534 26.5178 76.9796 26.5178C78.3323 26.5178 79.4682 26.8454 80.3877 27.5005C81.3073 28.1556 82.0011 29.0542 82.4698 30.1962C82.9472 31.3383 83.186 32.6308 83.186 34.0738C83.186 35.4992 82.9472 36.7873 82.4698 37.9382C82.0011 39.0802 81.3073 39.9876 80.3877 40.6604C79.4682 41.3244 78.3368 41.6564 76.9927 41.6564ZM77.2847 39.4918C78.2482 39.4918 79.0395 39.2617 79.6584 38.8013C80.2773 38.3321 80.7326 37.6903 81.0243 36.8758C81.325 36.0525 81.4751 35.1185 81.4751 34.0738C81.4751 33.0115 81.325 32.0775 81.0243 31.2719C80.7326 30.4574 80.2816 29.8244 79.6716 29.3729C79.0616 28.9126 78.288 28.6824 77.3508 28.6824C76.3783 28.6824 75.5739 28.9214 74.9373 29.3995C74.3097 29.8775 73.8412 30.5238 73.5316 31.3383C73.2309 32.1527 73.0808 33.0646 73.0808 34.0738C73.0808 35.0919 73.2354 36.0126 73.5448 36.836C73.8543 37.6504 74.3183 38.2967 74.9373 38.7748C75.5649 39.2528 76.3474 39.4918 77.2847 39.4918ZM81.4751 41.258V30.7009H81.2098V22.1356H83.5838V41.258H81.4751Z" fill="white"/>
<path d="M168.291 23.6452V23.5686L169.83 20.9742H168.426V20.4022H170.9V20.4788L169.371 23.0687H170.855V23.6452H168.291Z" fill="white"/>
<path d="M165.086 23.6452L166.076 20.4022H166.989L167.978 23.6452H167.348L166.467 20.7851H166.584L165.716 23.6452H165.086ZM165.68 22.9696V22.3976H167.389V22.9696H165.68Z" fill="white"/>
<path fill-rule="evenodd" clip-rule="evenodd" d="M55.9836 19H44V43H55.9836C62.602 43 67.9673 37.6274 67.9673 31C67.9673 24.3726 62.602 19 55.9836 19ZM57.1073 39.5806C56.832 39.4994 56.5495 39.1711 56.4895 38.857C56.4506 38.6522 56.4965 38.511 56.7896 37.9427C57.9759 35.6481 58.4913 33.537 58.4913 30.9777C58.4913 28.503 58.0359 26.5756 56.9026 24.2669C56.6589 23.7726 56.4612 23.3102 56.4612 23.2431C56.4612 22.996 56.666 22.6394 56.8884 22.5018C57.1921 22.3111 57.704 22.3465 57.9511 22.5759C58.0465 22.6642 58.2901 23.0666 58.4948 23.469C59.3069 25.0611 59.8612 26.8086 60.1365 28.6266C60.306 29.7527 60.3413 31.8849 60.2036 32.9157C59.953 34.8149 59.4516 36.5129 58.6467 38.1721C58.1594 39.1747 57.8558 39.5877 57.6016 39.5877C57.5522 39.5877 57.4675 39.6018 57.418 39.6159C57.3686 39.6301 57.2274 39.6159 57.1073 39.5806ZM53.8063 37.8544C53.3826 37.7309 53.0754 37.2084 53.199 36.8201C53.2272 36.7247 53.4285 36.2905 53.6439 35.8528C54.5512 33.9995 54.929 32.0155 54.7454 30.0669C54.5936 28.4642 54.3076 27.4546 53.5838 25.979C53.1002 24.987 53.0754 24.8352 53.3579 24.4328C53.6262 24.0515 54.297 23.9915 54.6465 24.3127C54.8901 24.5351 55.6492 26.1202 55.9422 27.0168C56.9096 29.9822 56.7613 33.1699 55.5221 36.0823C54.8831 37.5755 54.4347 38.038 53.8063 37.8544ZM49.852 35.4292C49.9156 35.7081 50.1415 35.987 50.4028 36.1034C50.5193 36.1564 50.717 36.1846 50.8406 36.1741C51.2466 36.1211 51.4478 35.9022 51.8539 35.0797C52.56 33.6429 52.8142 32.5733 52.8177 31.0165C52.8212 29.5021 52.5494 28.3195 51.8856 26.9568C51.4549 26.0707 51.2042 25.8272 50.7205 25.8272C50.4346 25.8272 50.3463 25.8589 50.1415 26.0531C49.7285 26.445 49.7391 26.6426 50.2298 27.6346C51.3454 29.8974 51.3349 32.125 50.191 34.4407C49.8803 35.0691 49.8132 35.2597 49.852 35.4292ZM47.2253 34.4725C47.017 34.3878 46.7805 34.1054 46.7098 33.8583C46.6322 33.5829 46.6957 33.3641 47.0064 32.8522C47.4089 32.192 47.5007 31.839 47.5007 30.9777C47.5007 30.1163 47.4089 29.7598 47.0064 29.1031C46.8687 28.8807 46.7346 28.6125 46.7028 28.5066C46.5721 28.0723 46.9358 27.5393 47.423 27.4475C47.8361 27.3698 48.1185 27.5534 48.4998 28.1465C49.5978 29.8621 49.5978 32.1497 48.4998 33.8512C48.1115 34.4478 47.6807 34.6596 47.2253 34.4725Z" fill="white"/>
</g>
<defs>
<clipPath id="clip0_476_269">
<rect width="127" height="24" fill="white" transform="translate(44 19)"/>
</clipPath>
</defs>
</svg>
