<svg width="216" height="64" viewBox="0 0 216 64" fill="none" xmlns="http://www.w3.org/2000/svg">
<g clip-path="url(#clip0_476_255)">
<path d="M87.6986 44.2781C84.698 44.2781 82.3579 43.4418 80.6777 41.7683C79.0177 40.0952 78.1875 37.7062 78.1875 34.6018V22.748H83.048V34.4203C83.048 38.2105 84.6083 40.1054 87.7285 40.1054C89.2488 40.1054 90.4089 39.6516 91.2089 38.7444C92.0088 37.8173 92.4089 36.3758 92.4089 34.4203V22.748H97.2093V34.6018C97.2093 37.7062 96.3694 40.0952 94.6892 41.7683C93.0292 43.4418 90.6989 44.2781 87.6986 44.2781Z" fill="white"/>
<path d="M99.582 33.5137H108.073V37.2937H99.582V33.5137Z" fill="white"/>
<path d="M113.852 26.7396H107.131V22.748H125.433V26.7396H118.712V43.9155H113.852V26.7396Z" fill="white"/>
<path d="M142.127 27.6465V43.9152H137.687V41.98C137.066 42.6853 136.326 43.2298 135.466 43.6128C134.606 43.9754 133.676 44.1569 132.676 44.1569C130.556 44.1569 128.876 43.542 127.636 42.3125C126.396 41.0826 125.775 39.2581 125.775 36.8391V27.6465H130.456V36.1437C130.456 38.7645 131.546 40.0749 133.726 40.0749C134.846 40.0749 135.746 39.7119 136.426 38.9863C137.106 38.2403 137.446 37.1415 137.446 35.6901V27.6465H142.127Z" fill="white"/>
<path d="M149.435 29.7932C149.995 29.007 150.745 28.4123 151.685 28.0091C152.646 27.6059 153.745 27.4043 154.986 27.4043V31.7587C154.466 31.7184 154.116 31.6982 153.936 31.6982C152.595 31.6982 151.546 32.0813 150.785 32.8473C150.025 33.5932 149.645 34.7221 149.645 36.2341V43.9149H144.965V27.6462H149.435V29.7932Z" fill="white"/>
<path d="M166.079 27.4043C168.079 27.4043 169.689 28.0091 170.909 29.2186C172.149 30.4282 172.769 32.2224 172.769 34.6012V43.9149H168.089V35.3269C168.089 34.0367 167.809 33.0791 167.249 32.4542C166.689 31.8091 165.879 31.4866 164.818 31.4866C163.639 31.4866 162.699 31.8595 161.998 32.6054C161.298 33.3311 160.948 34.4198 160.948 35.8712V43.9149H156.268V27.6462H160.738V29.5513C161.358 28.8658 162.128 28.3417 163.049 27.9788C163.968 27.5958 164.979 27.4043 166.079 27.4043Z" fill="white"/>
<path fill-rule="evenodd" clip-rule="evenodd" d="M57.2761 17.2479C58.0743 16.4434 59.3684 16.4434 60.1666 17.2479L67.6411 24.7813L60.1326 32.0049C59.3161 32.7905 58.0224 32.7602 57.2429 31.9372C56.4635 31.1143 56.4936 29.8104 57.3101 29.0248L59.6155 26.807H54.6336C50.6452 26.807 47.4119 30.0657 47.4119 34.0854C47.4119 38.1054 50.6452 41.3641 54.6336 41.3641H64.7168C65.8454 41.3641 66.7608 42.2863 66.7608 43.4238C66.7608 44.5617 65.8454 45.4839 64.7168 45.4839H54.6336C48.3876 45.4839 43.3242 40.3808 43.3242 34.0854C43.3242 27.7903 48.3876 22.687 54.6336 22.687H59.7824L57.2761 20.1611C56.478 19.3566 56.478 18.0524 57.2761 17.2479Z" fill="white"/>
</g>
<defs>
<clipPath id="clip0_476_255">
<rect width="130" height="30" fill="white" transform="translate(43 16)"/>
</clipPath>
</defs>
</svg>
