<svg width="216" height="64" viewBox="0 0 216 64" fill="none" xmlns="http://www.w3.org/2000/svg">
<g clip-path="url(#clip0_476_199)">
<path fill-rule="evenodd" clip-rule="evenodd" d="M39.3029 23.2078C41.7994 19.8498 45.7972 17.6742 50.3031 17.6742C54.8354 17.6742 58.8535 19.8754 61.347 23.2671C61.2409 23.3763 61.1442 23.4894 61.0568 23.6023C60.6 24.1938 60.2564 24.9557 59.981 25.7293C59.4266 27.2853 59.0037 29.3178 58.6121 31.2211L58.5774 31.3922C58.1867 33.292 57.8236 35.0588 57.3845 36.3704C57.1873 36.9596 57.0002 37.3761 56.8343 37.643C56.6612 37.374 56.4648 36.9524 56.257 36.3547C55.7874 35.0054 55.3925 33.1703 54.9738 31.2107L54.9602 31.1466C54.5579 29.2644 54.1311 27.2673 53.599 25.7386C53.3316 24.9707 53.0036 24.2165 52.5746 23.6305C52.1535 23.0554 51.4527 22.4064 50.4276 22.4064C49.409 22.4064 48.7049 23.0484 48.2778 23.617C47.8405 24.1992 47.4995 24.9503 47.2187 25.7186C46.6531 27.2657 46.1907 29.2894 45.7603 31.1953L45.7159 31.3922C45.2897 33.2802 44.8913 35.0452 44.4391 36.3593C44.2665 36.8612 44.1036 37.2429 43.9561 37.5157C43.812 37.2442 43.6532 36.865 43.4853 36.3674C43.0514 35.0813 42.6714 33.3656 42.2632 31.5229L42.1918 31.2004C41.7688 29.2934 41.31 27.266 40.7364 25.7141C40.4514 24.9429 40.1027 24.188 39.6516 23.6031C39.5495 23.4707 39.4334 23.3363 39.3029 23.2078ZM37.7919 25.7862C37.9108 26.021 38.0366 26.312 38.1667 26.6639C38.6632 28.0072 39.0839 29.8402 39.5171 31.7936L39.6014 32.1742C39.9958 33.9566 40.4061 35.8106 40.8893 37.2429C41.1464 38.0048 41.4568 38.751 41.856 39.3309C42.2335 39.8794 42.9107 40.5878 43.9521 40.5878C44.9905 40.5878 45.6693 39.8828 46.0494 39.3368C46.452 38.7582 46.7675 38.0129 47.0297 37.2506C47.5324 35.7898 47.9604 33.8923 48.37 32.0764L48.4327 31.7987C48.874 29.8442 49.2988 28.0075 49.7918 26.6593C50.0201 26.0347 50.2339 25.5995 50.42 25.3296C50.5964 25.5972 50.7979 26.0254 51.0116 26.6393C51.4813 27.9886 51.8759 29.8238 52.2947 31.7833L52.3084 31.8475C52.7106 33.7297 53.1374 35.7268 53.6695 37.2552C53.9368 38.0235 54.2649 38.7777 54.6939 39.3635C55.115 39.9387 55.8158 40.5878 56.8407 40.5878C57.8711 40.5878 58.5693 39.9328 58.9854 39.3525C59.408 38.7637 59.7257 38.0069 59.9823 37.24C60.4757 35.7668 60.8681 33.8554 61.2418 32.037L61.2957 31.7729C61.6982 29.8158 62.0847 27.9879 62.5619 26.6486C62.6654 26.3572 62.7672 26.1088 62.8644 25.9002C63.5957 27.5762 64.0012 29.427 64.0012 31.3724C64.0012 38.9376 57.8685 45.0707 50.3031 45.0707C42.7378 45.0707 36.6049 38.9376 36.6049 31.3724C36.6049 29.3828 37.0291 27.4922 37.7919 25.7862ZM50.3031 14.9346C41.2247 14.9346 33.8652 22.2941 33.8652 31.3724C33.8652 40.4508 41.2247 47.8102 50.3031 47.8102C59.3817 47.8102 66.7407 40.4508 66.7407 31.3724C66.7407 22.2941 59.3817 14.9346 50.3031 14.9346ZM50.6162 25.1002C50.6162 25.1002 50.6131 25.1031 50.6066 25.1069C50.613 25.1018 50.6162 25.1002 50.6162 25.1002ZM50.2376 25.1021C50.2312 25.0982 50.2281 25.0952 50.2281 25.0952C50.2281 25.0952 50.2313 25.0968 50.2376 25.1021ZM56.6324 37.903C56.6324 37.903 56.6354 37.9 56.6413 37.8962C56.6354 37.9013 56.6324 37.903 56.6324 37.903ZM57.0307 37.892C57.0371 37.8958 57.0405 37.8988 57.0405 37.8988C57.0405 37.8988 57.0371 37.8971 57.0307 37.892ZM43.6714 37.9276C43.6714 37.9276 43.6753 37.9234 43.6832 37.9178C43.6754 37.9251 43.6714 37.9276 43.6714 37.9276ZM44.2262 37.9204C44.234 37.9259 44.2379 37.9301 44.2379 37.9301C44.2379 37.9301 44.2339 37.928 44.2262 37.9204Z" fill="white"/>
<path d="M75.8163 41.1034L71.8301 27.4683H75.3217L77.6858 37.2822L80.4346 27.4683H84.3381L87.0874 37.2822L89.479 27.4683H92.9702L88.9568 41.1034H85.3006L82.3863 30.9046L79.4725 41.1034H75.8163Z" fill="white"/>
<path d="M98.0934 41.4337C96.9205 41.4337 95.9584 41.2501 95.2071 40.8835C94.4558 40.4988 93.8967 39.9948 93.5302 39.3717C93.1637 38.7485 92.9805 38.0613 92.9805 37.3101C92.9805 36.0455 93.4751 35.0192 94.4648 34.2311C95.4544 33.4431 96.9391 33.049 98.9185 33.049H102.382V32.7191C102.382 31.7845 102.116 31.0972 101.585 30.6574C101.053 30.2175 100.393 29.9976 99.6057 29.9976C98.8909 29.9976 98.2677 30.1717 97.7362 30.5199C97.2047 30.8498 96.8746 31.3446 96.7465 32.0044H93.3101C93.4021 31.0148 93.7317 30.1534 94.2997 29.4203C94.8864 28.6873 95.6377 28.1283 96.5539 27.7435C97.4706 27.3403 98.4968 27.1387 99.6328 27.1387C101.576 27.1387 103.106 27.6243 104.224 28.5956C105.342 29.5669 105.901 30.9415 105.901 32.7191V41.1037H102.904L102.575 38.9046C102.171 39.6377 101.603 40.2421 100.87 40.719C100.155 41.1953 99.2298 41.4337 98.0934 41.4337ZM98.8909 38.6845C99.8988 38.6845 100.678 38.3544 101.227 37.6948C101.795 37.0352 102.153 36.2194 102.3 35.2482H99.3032C98.3683 35.2482 97.6997 35.4224 97.2963 35.7705C96.8933 36.1004 96.6914 36.513 96.6914 37.0076C96.6914 37.5391 96.8933 37.9515 97.2963 38.2446C97.6997 38.5377 98.2308 38.6845 98.8909 38.6845Z" fill="white"/>
<path d="M111.44 41.1034L106.438 27.4683H110.121L113.585 37.7773L117.049 27.4683H120.732L115.702 41.1034H111.44Z" fill="white"/>
<path d="M127.805 41.4337C126.431 41.4337 125.212 41.1402 124.149 40.5539C123.086 39.9673 122.252 39.1426 121.647 38.0796C121.042 37.0169 120.74 35.7889 120.74 34.396C120.74 32.9849 121.033 31.7295 121.62 30.6299C122.225 29.5303 123.049 28.6781 124.094 28.0733C125.157 27.4502 126.403 27.1387 127.832 27.1387C129.17 27.1387 130.353 27.4319 131.379 28.0183C132.405 28.6048 133.202 29.4112 133.77 30.4375C134.357 31.4454 134.65 32.5725 134.65 33.8188C134.65 34.0204 134.641 34.2311 134.623 34.451C134.623 34.671 134.613 34.9 134.595 35.1383H124.231C124.305 36.2012 124.671 37.0352 125.331 37.6401C126.009 38.2446 126.825 38.547 127.778 38.547C128.492 38.547 129.088 38.3914 129.565 38.0796C130.059 37.75 130.426 37.3283 130.664 36.815H134.238C133.981 37.6766 133.55 38.4647 132.946 39.1795C132.359 39.8756 131.626 40.4254 130.746 40.8288C129.885 41.2318 128.904 41.4337 127.805 41.4337ZM127.832 29.9976C126.971 29.9976 126.211 30.2451 125.551 30.7398C124.891 31.2164 124.469 31.9494 124.286 32.9391H131.076C131.021 32.041 130.692 31.3263 130.087 30.7948C129.482 30.2634 128.731 29.9976 127.832 29.9976Z" fill="white"/>
<path d="M136.512 41.104V21.311H140.03V41.104H136.512Z" fill="white"/>
<path d="M149.151 41.4337C147.776 41.4337 146.557 41.1402 145.494 40.5539C144.432 39.9673 143.598 39.1426 142.993 38.0796C142.388 37.0169 142.086 35.7889 142.086 34.396C142.086 32.9849 142.379 31.7295 142.965 30.6299C143.57 29.5303 144.395 28.6781 145.44 28.0733C146.503 27.4502 147.749 27.1387 149.178 27.1387C150.516 27.1387 151.698 27.4319 152.725 28.0183C153.751 28.6048 154.548 29.4112 155.116 30.4375C155.702 31.4454 155.996 32.5725 155.996 33.8188C155.996 34.0204 155.987 34.2311 155.968 34.451C155.968 34.671 155.959 34.9 155.941 35.1383H145.577C145.651 36.2012 146.017 37.0352 146.677 37.6401C147.355 38.2446 148.17 38.547 149.123 38.547C149.838 38.547 150.434 38.3914 150.91 38.0796C151.405 37.75 151.771 37.3283 152.01 36.815H155.584C155.327 37.6766 154.896 38.4647 154.292 39.1795C153.705 39.8756 152.972 40.4254 152.092 40.8288C151.231 41.2318 150.251 41.4337 149.151 41.4337ZM149.178 29.9976C148.317 29.9976 147.556 30.2451 146.896 30.7398C146.237 31.2164 145.815 31.9494 145.632 32.9391H152.422C152.367 32.041 152.037 31.3263 151.432 30.7948C150.827 30.2634 150.076 29.9976 149.178 29.9976Z" fill="white"/>
<path d="M163.491 41.4337C162.282 41.4337 161.219 41.2411 160.302 40.8564C159.386 40.453 158.653 39.9032 158.103 39.2067C157.553 38.5106 157.224 37.7041 157.113 36.7879H160.66C160.769 37.319 161.063 37.7775 161.539 38.1623C162.034 38.5288 162.667 38.7121 163.436 38.7121C164.206 38.7121 164.765 38.5564 165.113 38.2446C165.479 37.9332 165.663 37.5756 165.663 37.1726C165.663 36.586 165.406 36.1919 164.893 35.9905C164.38 35.7705 163.665 35.5598 162.749 35.3582C162.163 35.2299 161.567 35.0741 160.962 34.8909C160.357 34.7076 159.798 34.4785 159.285 34.2036C158.79 33.9104 158.387 33.5439 158.075 33.104C157.764 32.6458 157.608 32.0869 157.608 31.4271C157.608 30.2175 158.085 29.2004 159.038 28.3757C160.009 27.551 161.365 27.1387 163.106 27.1387C164.719 27.1387 166.002 27.5143 166.955 28.2657C167.926 29.0172 168.504 30.0526 168.687 31.3721H165.361C165.159 30.3642 164.398 29.8602 163.079 29.8602C162.419 29.8602 161.906 29.9885 161.539 30.2451C161.191 30.5016 161.017 30.8223 161.017 31.2072C161.017 31.6104 161.283 31.9311 161.814 32.1694C162.346 32.4076 163.051 32.6275 163.931 32.8291C164.884 33.049 165.754 33.2964 166.542 33.5714C167.349 33.8279 167.99 34.222 168.467 34.7534C168.943 35.2666 169.181 36.0088 169.181 36.98C169.2 37.8233 168.98 38.5835 168.522 39.2618C168.064 39.9397 167.404 40.4712 166.542 40.8564C165.681 41.2411 164.664 41.4337 163.491 41.4337Z" fill="white"/>
<path d="M176.833 41.4337C175.623 41.4337 174.56 41.2411 173.644 40.8564C172.728 40.453 171.994 39.9032 171.445 39.2067C170.895 38.5106 170.565 37.7041 170.455 36.7879H174.001C174.111 37.319 174.404 37.7775 174.881 38.1623C175.376 38.5288 176.008 38.7121 176.778 38.7121C177.547 38.7121 178.106 38.5564 178.455 38.2446C178.821 37.9332 179.004 37.5756 179.004 37.1726C179.004 36.586 178.748 36.1919 178.235 35.9905C177.722 35.7705 177.007 35.5598 176.091 35.3582C175.504 35.2299 174.908 35.0741 174.303 34.8909C173.699 34.7076 173.14 34.4785 172.627 34.2036C172.132 33.9104 171.729 33.5439 171.417 33.104C171.105 32.6458 170.95 32.0869 170.95 31.4271C170.95 30.2175 171.426 29.2004 172.379 28.3757C173.351 27.551 174.707 27.1387 176.448 27.1387C178.061 27.1387 179.343 27.5143 180.297 28.2657C181.268 29.0172 181.845 30.0526 182.028 31.3721H178.702C178.5 30.3642 177.74 29.8602 176.42 29.8602C175.761 29.8602 175.247 29.9885 174.881 30.2451C174.532 30.5016 174.359 30.8223 174.359 31.2072C174.359 31.6104 174.624 31.9311 175.156 32.1694C175.687 32.4076 176.393 32.6275 177.272 32.8291C178.226 33.049 179.096 33.2964 179.884 33.5714C180.691 33.8279 181.332 34.222 181.808 34.7534C182.285 35.2666 182.523 36.0088 182.523 36.98C182.541 37.8233 182.322 38.5835 181.864 39.2618C181.405 39.9397 180.745 40.4712 179.884 40.8564C179.023 41.2411 178.005 41.4337 176.833 41.4337Z" fill="white"/>
</g>
<defs>
<clipPath id="clip0_476_199">
<rect width="150" height="34" fill="white" transform="translate(33 14)"/>
</clipPath>
</defs>
</svg>
