<svg width="9" height="10" viewBox="0 0 9 10" fill="none" xmlns="http://www.w3.org/2000/svg">
<path d="M8.8513 1.49976V7.18726C8.8513 7.3613 8.78215 7.52822 8.65908 7.65129C8.53601 7.77436 8.36909 7.84351 8.19505 7.84351C8.021 7.84351 7.85408 7.77436 7.73101 7.65129C7.60794 7.52822 7.5388 7.3613 7.5388 7.18726V3.08569L1.65934 8.96405C1.53606 9.08734 1.36885 9.1566 1.1945 9.1566C1.02015 9.1566 0.852938 9.08734 0.729654 8.96405C0.60637 8.84077 0.537109 8.67356 0.537109 8.49921C0.537109 8.32486 0.60637 8.15765 0.729654 8.03437L6.60911 2.15601H2.50754C2.3335 2.15601 2.16658 2.08687 2.04351 1.96379C1.92044 1.84072 1.85129 1.6738 1.85129 1.49976C1.85129 1.32571 1.92044 1.15879 2.04351 1.03572C2.16658 0.912646 2.3335 0.843506 2.50754 0.843506H8.19505C8.36909 0.843506 8.53601 0.912646 8.65908 1.03572C8.78215 1.15879 8.8513 1.32571 8.8513 1.49976Z" fill="#FF7E5D"/>
</svg>
